Poster: 
http://imgr.us/images/tl0ourqfuuv4nxn5bgs.jpg

Info:


Format : AVI
Format/Info : Audio Video Interleave
Format profile : OpenDML
File size : 2.55 GiB
Duration : 2h 29mn
Overall bit rate : 2 438 Kbps
Writing library : VirtualDub build 32842/release

Video
ID : 0
Format : MPEG-4 Visual
Format profile : Advanced Simple@L5
Format settings, BVOP : 2
Format settings, QPel : No
Format settings, GMC : No warppoints
Format settings, Matrix : Default (H.263)
Muxing mode : Packed bitstream
Codec ID : XVID
Codec ID/Hint : XviD
Duration : 2h 29mn
Bit rate : 2 171 Kbps
Width : 720 pixels
Height : 304 pixels
Display aspect ratio : 2.35:1
Frame rate : 23.976 fps
Color space : YUV
Chroma subsampling : 4:2:0
Bit depth : 8 bits
Scan type : Progressive
Compression mode : Lossy
Bits/(Pixel*Frame) : 0.414
Stream size : 2.27 GiB (89%)
Writing library : XviD 64

Audio
ID : 1
Format : AC-3
Format/Info : Audio Coding 3
Mode extension : CM (complete main)
Codec ID : 2000
Duration : 2h 29mn
Bit rate mode : Constant
Bit rate : 256 Kbps
Channel(s) : 6 channels
Channel positions : Front: L C R, Side: L R, LFE
Sampling rate : 48.0 KHz
Bit depth : 16 bits
Compression mode : Lossy
Stream size : 274 MiB (10%)
Alignment : Aligned on interleaves
Interleave, duration : 42 ms (1.00 video frame)

Screens:
 
http://imgr.us/images/2ox5tbyg9mlfilrvbhts.png 
http://www.shotpix.com/images/71197832305265121874.jpg 
http://www.shotpix.com/images/47995179094187566684.jpg 
http://www.shotpix.com/images/58962609311104122351.jpg 
http://www.shotpix.com/images/00663719246758094274.jpg 
http://www.shotpix.com/images/12117202371905085996.jpg








